<svg width="166" height="36" viewBox="0 0 166 36" fill="none" xmlns="http://www.w3.org/2000/svg">
<g filter="url(#filter0_d_63_769)">
<path d="M44.7205 26L40.4102 10.7273H43.3857L46.1374 21.9506H46.2791L49.2173 10.7273H51.9244L54.87 21.9581H55.0043L57.756 10.7273H60.7315L56.4212 26H53.6918L50.6342 15.2837H50.5149L47.4499 26H44.7205ZM66.4327 26.2237C65.2843 26.2237 64.2924 25.9851 63.4572 25.5078C62.627 25.0256 61.9881 24.3445 61.5407 23.4645C61.0932 22.5795 60.8695 21.538 60.8695 20.3398C60.8695 19.1616 61.0932 18.1275 61.5407 17.2376C61.9931 16.3427 62.6245 15.6467 63.4348 15.1495C64.2452 14.6474 65.1973 14.3963 66.291 14.3963C66.997 14.3963 67.6632 14.5107 68.2896 14.7393C68.921 14.9631 69.4778 15.3111 69.9601 15.7834C70.4473 16.2557 70.8301 16.8572 71.1085 17.5881C71.3869 18.3139 71.5261 19.179 71.5261 20.1832V21.011H62.1373V19.1914H68.9384C68.9334 18.6744 68.8216 18.2145 68.6028 17.8118C68.3841 17.4041 68.0783 17.0835 67.6855 16.8498C67.2978 16.6161 66.8453 16.4993 66.3283 16.4993C65.7765 16.4993 65.2917 16.6335 64.8741 16.902C64.4565 17.1655 64.1309 17.5135 63.8972 17.946C63.6685 18.3736 63.5517 18.8434 63.5467 19.3555V20.9439C63.5467 21.6101 63.6685 22.1818 63.9121 22.6591C64.1557 23.1314 64.4963 23.4943 64.9338 23.7479C65.3713 23.9964 65.8833 24.1207 66.47 24.1207C66.8627 24.1207 67.2182 24.0661 67.5364 23.9567C67.8546 23.8423 68.1305 23.6758 68.3642 23.457C68.5978 23.2383 68.7743 22.9673 68.8936 22.6442L71.4142 22.9276C71.2551 23.5937 70.9519 24.1754 70.5044 24.6726C70.062 25.1648 69.4952 25.5476 68.8042 25.821C68.1131 26.0895 67.3226 26.2237 66.4327 26.2237ZM73.9292 26V10.7273H76.6288V16.4396H76.7407C76.8799 16.1612 77.0763 15.8654 77.3298 15.5522C77.5834 15.234 77.9264 14.9631 78.3589 14.7393C78.7915 14.5107 79.3433 14.3963 80.0145 14.3963C80.8994 14.3963 81.6974 14.6225 82.4083 15.0749C83.1242 15.5224 83.691 16.1861 84.1086 17.0661C84.5312 17.9411 84.7425 19.0149 84.7425 20.2876C84.7425 21.5455 84.5361 22.6143 84.1235 23.4943C83.7108 24.3743 83.1491 25.0455 82.4381 25.5078C81.7272 25.9702 80.9218 26.2013 80.0219 26.2013C79.3657 26.2013 78.8213 26.092 78.3888 25.8732C77.9562 25.6545 77.6082 25.391 77.3447 25.0827C77.0862 24.7695 76.8849 24.4737 76.7407 24.1953H76.5841V26H73.9292ZM76.5766 20.2727C76.5766 21.0135 76.681 21.6623 76.8898 22.2191C77.1036 22.7759 77.4094 23.2109 77.8071 23.5241C78.2098 23.8324 78.697 23.9865 79.2687 23.9865C79.8653 23.9865 80.365 23.8274 80.7677 23.5092C81.1704 23.1861 81.4736 22.7461 81.6775 22.1893C81.8863 21.6275 81.9907 20.9886 81.9907 20.2727C81.9907 19.5618 81.8888 18.9304 81.6849 18.3786C81.4811 17.8267 81.1778 17.3942 80.7751 17.081C80.3724 16.7678 79.8703 16.6112 79.2687 16.6112C78.692 16.6112 78.2023 16.7628 77.7996 17.0661C77.3969 17.3693 77.0912 17.7944 76.8824 18.3413C76.6785 18.8881 76.5766 19.532 76.5766 20.2727ZM87.0375 26V14.5455H89.737V26H87.0375ZM88.3947 12.9197C87.9672 12.9197 87.5993 12.7781 87.291 12.4947C86.9828 12.2063 86.8287 11.8608 86.8287 11.4581C86.8287 11.0504 86.9828 10.7049 87.291 10.4215C87.5993 10.1332 87.9672 9.98899 88.3947 9.98899C88.8272 9.98899 89.1951 10.1332 89.4984 10.4215C89.8066 10.7049 89.9608 11.0504 89.9608 11.4581C89.9608 11.8608 89.8066 12.2063 89.4984 12.4947C89.1951 12.7781 88.8272 12.9197 88.3947 12.9197ZM95.2126 19.2884V26H92.5131V14.5455H95.0933V16.4918H95.2275C95.491 15.8505 95.9111 15.3409 96.4878 14.9631C97.0695 14.5852 97.7879 14.3963 98.643 14.3963C99.4335 14.3963 100.122 14.5653 100.709 14.9034C101.3 15.2415 101.758 15.7312 102.081 16.3725C102.409 17.0138 102.571 17.7919 102.566 18.7067V26H99.866V19.1243C99.866 18.3587 99.6672 17.7596 99.2694 17.3271C98.8767 16.8945 98.3323 16.6783 97.6363 16.6783C97.164 16.6783 96.7439 16.7827 96.376 16.9915C96.0131 17.1953 95.7272 17.4911 95.5184 17.8789C95.3145 18.2667 95.2126 18.7365 95.2126 19.2884ZM110.381 26.2237C109.233 26.2237 108.241 25.9851 107.405 25.5078C106.575 25.0256 105.936 24.3445 105.489 23.4645C105.041 22.5795 104.818 21.538 104.818 20.3398C104.818 19.1616 105.041 18.1275 105.489 17.2376C105.941 16.3427 106.573 15.6467 107.383 15.1495C108.193 14.6474 109.146 14.3963 110.239 14.3963C110.945 14.3963 111.611 14.5107 112.238 14.7393C112.869 14.9631 113.426 15.3111 113.908 15.7834C114.396 16.2557 114.778 16.8572 115.057 17.5881C115.335 18.3139 115.474 19.179 115.474 20.1832V21.011H106.085V19.1914H112.887C112.882 18.6744 112.77 18.2145 112.551 17.8118C112.332 17.4041 112.027 17.0835 111.634 16.8498C111.246 16.6161 110.794 16.4993 110.277 16.4993C109.725 16.4993 109.24 16.6335 108.822 16.902C108.405 17.1655 108.079 17.5135 107.845 17.946C107.617 18.3736 107.5 18.8434 107.495 19.3555V20.9439C107.495 21.6101 107.617 22.1818 107.86 22.6591C108.104 23.1314 108.445 23.4943 108.882 23.7479C109.32 23.9964 109.832 24.1207 110.418 24.1207C110.811 24.1207 111.166 24.0661 111.485 23.9567C111.803 23.8423 112.079 23.6758 112.312 23.457C112.546 23.2383 112.723 22.9673 112.842 22.6442L115.362 22.9276C115.203 23.5937 114.9 24.1754 114.453 24.6726C114.01 25.1648 113.443 25.5476 112.752 25.821C112.061 26.0895 111.271 26.2237 110.381 26.2237ZM119.719 14.5455L122.031 18.7738L124.38 14.5455H127.237L123.784 20.2727L127.296 26H124.455L122.031 21.8761L119.63 26H116.766L120.256 20.2727L116.856 14.5455H119.719Z" fill="white"/>
<path d="M25.2562 31.6238L19.125 28.5525V28.125C19.125 27.8267 19.0064 27.5405 18.7954 27.3295C18.5845 27.1186 18.2983 27 18 27C17.7016 27 17.4154 27.1186 17.2045 27.3295C16.9935 27.5405 16.875 27.8267 16.875 28.125V28.5525L10.7437 31.6238C10.5003 31.7702 10.3213 32.0033 10.2427 32.2763C10.1641 32.5492 10.1916 32.8418 10.3198 33.0954C10.4479 33.3488 10.6673 33.5445 10.9337 33.6429C11.2001 33.7415 11.494 33.7355 11.7562 33.6262L16.875 31.0725V31.5C16.875 31.7983 16.9935 32.0845 17.2045 32.2955C17.4154 32.5064 17.7016 32.625 18 32.625C18.2983 32.625 18.5845 32.5064 18.7954 32.2955C19.0064 32.0845 19.125 31.7983 19.125 31.5V31.0725L24.2437 33.6262C24.3993 33.7095 24.5734 33.7521 24.75 33.75C24.9577 33.7493 25.1613 33.6913 25.338 33.582C25.5147 33.4728 25.6577 33.3168 25.7512 33.1313C25.8846 32.8655 25.9075 32.5578 25.8148 32.2753C25.722 31.9929 25.5211 31.7586 25.2562 31.6238Z" fill="#F4F4F4"/>
<path d="M25.7849 23.1975C25.7005 22.9921 25.5572 22.8162 25.373 22.692C25.1888 22.568 24.972 22.5011 24.7499 22.5H11.2499C11.0278 22.5011 10.811 22.568 10.6268 22.692C10.4426 22.8162 10.2993 22.9921 10.2149 23.1975C10.1288 23.4024 10.1052 23.6282 10.1473 23.8464C10.1893 24.0647 10.2951 24.2656 10.4512 24.4237L13.8262 27.7987C13.9312 27.903 14.056 27.9855 14.193 28.0415C14.3301 28.0974 14.4769 28.1259 14.6249 28.125H21.3749C21.523 28.1259 21.6698 28.0974 21.8068 28.0415C21.9438 27.9855 22.0686 27.903 22.1737 27.7987L25.5487 24.4237C25.7048 24.2656 25.8106 24.0647 25.8525 23.8464C25.8946 23.6282 25.8711 23.4024 25.7849 23.1975Z" fill="#FF6F00"/>
<path d="M30.375 2.25H5.625C3.76104 2.25 2.25 3.76104 2.25 5.625V21.375C2.25 23.239 3.76104 24.75 5.625 24.75H30.375C32.239 24.75 33.75 23.239 33.75 21.375V5.625C33.75 3.76104 32.239 2.25 30.375 2.25Z" fill="#FE6833"/>
<path d="M25.875 10.125H10.125C9.82663 10.125 9.54048 10.0065 9.3295 9.7955C9.11853 9.58452 9 9.29837 9 9C9 8.70163 9.11853 8.41548 9.3295 8.2045C9.54048 7.99353 9.82663 7.875 10.125 7.875H25.875C26.1733 7.875 26.4595 7.99353 26.6705 8.2045C26.8814 8.41548 27 8.70163 27 9C27 9.29837 26.8814 9.58452 26.6705 9.7955C26.4595 10.0065 26.1733 10.125 25.875 10.125Z" fill="#E1B6B6"/>
<path d="M15.75 14.625H10.125C9.82663 14.625 9.54048 14.5064 9.3295 14.2955C9.11853 14.0845 9 13.7983 9 13.5C9 13.2017 9.11853 12.9155 9.3295 12.7045C9.54048 12.4936 9.82663 12.375 10.125 12.375H15.75C16.0483 12.375 16.3345 12.4936 16.5455 12.7045C16.7564 12.9155 16.875 13.2017 16.875 13.5C16.875 13.7983 16.7564 14.0845 16.5455 14.2955C16.3345 14.5064 16.0483 14.625 15.75 14.625Z" fill="#F5F5F5"/>
<path d="M21.375 19.125H10.125C9.82663 19.125 9.54048 19.0064 9.3295 18.7955C9.11853 18.5845 9 18.2983 9 18C9 17.7017 9.11853 17.4155 9.3295 17.2045C9.54048 16.9936 9.82663 16.875 10.125 16.875H21.375C21.6733 16.875 21.9595 16.9936 22.1705 17.2045C22.3814 17.4155 22.5 17.7017 22.5 18C22.5 18.2983 22.3814 18.5845 22.1705 18.7955C21.9595 19.0064 21.6733 19.125 21.375 19.125Z" fill="#E1B6B6"/>
<path d="M16.875 28.125V28.5525L10.7437 31.6238C10.5003 31.7702 10.3213 32.0033 10.2427 32.2763C10.1641 32.5492 10.1916 32.8418 10.3198 33.0954C10.4479 33.3488 10.6673 33.5445 10.9337 33.6429C11.2001 33.7415 11.494 33.7355 11.7562 33.6262L16.875 31.0725V31.5C16.875 31.7983 16.9935 32.0845 17.2045 32.2955C17.4154 32.5064 17.7016 32.625 18 32.625V27C17.7016 27 17.4154 27.1186 17.2045 27.3295C16.9935 27.5405 16.875 27.8267 16.875 28.125Z" fill="white"/>
<path d="M11.2499 22.5C11.0278 22.5011 10.811 22.568 10.6268 22.692C10.4426 22.8162 10.2993 22.9921 10.2149 23.1975C10.1288 23.4024 10.1052 23.6282 10.1473 23.8464C10.1893 24.0647 10.2951 24.2656 10.4512 24.4237L13.8262 27.7987C13.9312 27.903 14.056 27.9855 14.193 28.0415C14.3301 28.0974 14.4769 28.1259 14.6249 28.125H17.9999V22.5H11.2499Z" fill="#FFA000"/>
<path d="M5.625 2.25C4.72989 2.25 3.87145 2.60558 3.23851 3.23851C2.60558 3.87145 2.25 4.72989 2.25 5.625V21.375C2.25 22.27 2.60558 23.1285 3.23851 23.7615C3.87145 24.3944 4.72989 24.75 5.625 24.75H18V2.25H5.625Z" fill="#DD5E31"/>
<path d="M10.125 7.875C9.82663 7.875 9.54048 7.99353 9.3295 8.2045C9.11853 8.41548 9 8.70163 9 9C9 9.29837 9.11853 9.58452 9.3295 9.7955C9.54048 10.0065 9.82663 10.125 10.125 10.125H18V7.875H10.125Z" fill="#F5F5F5"/>
<path d="M15.75 12.375H10.125C9.82663 12.375 9.54048 12.4936 9.3295 12.7045C9.11853 12.9155 9 13.2017 9 13.5C9 13.7983 9.11853 14.0845 9.3295 14.2955C9.54048 14.5064 9.82663 14.625 10.125 14.625H15.75C16.0483 14.625 16.3345 14.5064 16.5455 14.2955C16.7564 14.0845 16.875 13.7983 16.875 13.5C16.875 13.2017 16.7564 12.9155 16.5455 12.7045C16.3345 12.4936 16.0483 12.375 15.75 12.375Z" fill="#F5F5F5"/>
<path d="M10.125 16.875C9.82663 16.875 9.54048 16.9936 9.3295 17.2045C9.11853 17.4155 9 17.7017 9 18C9 18.2983 9.11853 18.5845 9.3295 18.7955C9.54048 19.0064 9.82663 19.125 10.125 19.125H18V16.875H10.125Z" fill="#F5F5F5"/>
</g>
<defs>
<filter id="filter0_d_63_769" x="-4" y="0" width="135.296" height="44" filterUnits="userSpaceOnUse" color-interpolation-filters="sRGB">
<feFlood flood-opacity="0" result="BackgroundImageFix"/>
<feColorMatrix in="SourceAlpha" type="matrix" values="0 0 0 0 0 0 0 0 0 0 0 0 0 0 0 0 0 0 127 0" result="hardAlpha"/>
<feOffset dy="4"/>
<feGaussianBlur stdDeviation="2"/>
<feComposite in2="hardAlpha" operator="out"/>
<feColorMatrix type="matrix" values="0 0 0 0 0 0 0 0 0 0 0 0 0 0 0 0 0 0 0.25 0"/>
<feBlend mode="normal" in2="BackgroundImageFix" result="effect1_dropShadow_63_769"/>
<feBlend mode="normal" in="SourceGraphic" in2="effect1_dropShadow_63_769" result="shape"/>
</filter>
</defs>
</svg>
